<svg width="23" height="23" viewBox="0 0 23 23" fill="none" xmlns="http://www.w3.org/2000/svg">
<path d="M22.9926 5.90293C22.8711 8.7765 21.8131 13.115 17.4636 17.4645C13.1139 21.8141 8.77556 22.872 5.902 22.9936C5.80241 22.9978 5.70316 23 5.60391 23C5.60379 23 5.60368 23 5.60357 23C3.71466 23 1.93692 22.2623 0.597623 20.9232C-0.199208 20.1263 -0.199208 18.8298 0.597623 18.033L3.93859 14.692C4.32457 14.3061 4.83774 14.0935 5.38372 14.0935C5.92959 14.0935 6.44276 14.3061 6.82874 14.692L8.15724 16.0205C8.244 16.0268 8.35336 16.0318 8.4819 16.0318C9.52197 16.0318 11.5763 15.7222 13.6488 13.6498C16.0406 11.258 16.0782 8.89414 16.0216 8.16045L14.691 6.82979C13.8942 6.03296 13.8942 4.73647 14.6909 3.93976L18.032 0.598674C18.4178 0.212579 18.931 0 19.477 0C20.023 0 20.536 0.212579 20.9221 0.59856C22.3211 1.99781 23.0759 3.93124 22.9926 5.90293Z" fill="#FFE848"/>
</svg>
