<svg width="23" height="23" viewBox="0 0 23 23" fill="none" xmlns="http://www.w3.org/2000/svg">
<path d="M19.8467 3.50206C19.8467 3.50206 21.7085 2.77612 21.5533 4.53912C21.5016 5.26506 21.0362 7.80585 20.6742 10.5541L19.433 18.695C19.433 18.695 19.3296 19.8876 18.3988 20.095C17.4679 20.3024 16.0716 19.369 15.813 19.1616C15.6062 19.0061 11.9345 16.6727 10.6416 15.5319C10.2796 15.2208 9.8659 14.5986 10.6933 13.8726L16.1233 8.68737C16.7439 8.06512 17.3645 6.61325 14.7787 8.37625L7.53878 13.3023C7.53878 13.3023 6.71135 13.8208 5.15996 13.3541L1.79851 12.3171C1.79851 12.3171 0.557372 11.5393 2.67766 10.7614C7.84909 8.32435 14.2099 5.83542 19.8467 3.50206Z" fill="#458FFF"/>
</svg>
