<svg width="27" height="27" viewBox="0 0 27 27" fill="none" xmlns="http://www.w3.org/2000/svg">
<g clip-path="url(#clip0_1_270)">
<path d="M24.0328 16.6025C24.0328 16.6025 26.2158 18.7584 26.7558 19.7561C26.7663 19.7705 26.7745 19.7864 26.7801 19.8033C27.0001 20.1719 27.0541 20.4608 26.9461 20.6741C26.7639 21.0264 26.1469 21.2033 25.9377 21.2181H22.0794C21.8107 21.2181 21.2518 21.1479 20.5714 20.6781C20.0517 20.315 19.5346 19.7169 19.0338 19.1324C18.2859 18.2643 17.6392 17.511 16.9845 17.511C16.9018 17.5108 16.8196 17.5245 16.7415 17.5515C16.246 17.7081 15.6169 18.4142 15.6169 20.2947C15.6169 20.8833 15.1525 21.2181 14.8272 21.2181H13.06C12.4579 21.2181 9.32322 21.0075 6.54357 18.0767C3.13752 14.4884 0.0784216 7.29018 0.0487216 7.22673C-0.141628 6.76098 0.257972 6.50718 0.689972 6.50718H4.58607C5.10852 6.50718 5.27862 6.82308 5.39742 7.10658C5.53512 7.43193 6.04542 8.73333 6.88242 10.1954C8.23782 12.5741 9.07077 13.542 9.73632 13.542C9.86136 13.5424 9.98429 13.5098 10.0927 13.4475C10.9621 12.9696 10.8001 9.86463 10.7596 9.22473C10.7596 9.10053 10.7583 7.83828 10.3128 7.22808C9.99417 6.79068 9.45147 6.62058 9.12342 6.55848C9.21117 6.43158 9.39747 6.23718 9.63642 6.12243C10.2318 5.82543 11.3077 5.78223 12.3756 5.78223H12.9682C14.1265 5.79843 14.4262 5.87268 14.8474 5.97933C15.6952 6.18183 15.7114 6.73128 15.6372 8.60238C15.6156 9.13698 15.5926 9.73908 15.5926 10.4478C15.5926 10.599 15.5859 10.7678 15.5859 10.9392C15.5602 11.8991 15.5265 12.9804 16.2042 13.4246C16.2921 13.4793 16.3936 13.5083 16.4971 13.5083C16.732 13.5083 17.4354 13.5083 19.3429 10.2345C20.1799 8.78868 20.8279 7.08363 20.8725 6.95538C20.9103 6.88383 21.0237 6.68268 21.1614 6.60168C21.2593 6.54956 21.369 6.52353 21.48 6.52608H26.0632C26.5627 6.52608 26.9016 6.60168 26.9677 6.79068C27.0784 7.09713 26.9461 8.03268 24.8536 10.8623C24.5013 11.3334 24.1921 11.7411 23.9208 12.0975C22.024 14.5869 22.024 14.7125 24.0328 16.6025Z" fill="#449BFF"/>
</g>
<defs>
<clipPath id="clip0_1_270">
<rect width="27" height="27" fill="white"/>
</clipPath>
</defs>
</svg>
