<svg width="24" height="23" viewBox="0 0 24 23" fill="none" xmlns="http://www.w3.org/2000/svg">
<g filter="url(#filter0_d_1_251)">
<path d="M11.9392 0.0133012C5.86493 0.302524 1.07147 5.36122 1.0899 11.4424C1.09551 13.2945 1.54265 15.0427 2.33144 16.5874L1.12037 22.4661C1.05486 22.7841 1.34166 23.0625 1.65756 22.9877L7.41797 21.623C8.89791 22.3602 10.5602 22.786 12.3195 22.8128C18.5279 22.9076 23.7047 17.9779 23.8983 11.7717C24.1057 5.11914 18.6151 -0.304634 11.9392 0.0133012ZM18.8126 17.7228C17.1256 19.4098 14.8826 20.3388 12.4969 20.3388C11.1 20.3388 9.76255 20.0254 8.52167 19.4073L7.71946 19.0077L4.18773 19.8445L4.93114 16.2357L4.53592 15.4617C3.89174 14.2002 3.56512 12.836 3.56512 11.4071C3.56512 9.02128 4.49417 6.77834 6.18116 5.0913C7.85307 3.41939 10.1326 2.47521 12.4971 2.47521C14.8828 2.47527 17.1257 3.40432 18.8127 5.09125C20.4996 6.77823 21.4287 9.02116 21.4288 11.4069C21.4287 13.7714 20.4845 16.051 18.8126 17.7228Z" fill="#7FED6F"/>
<path d="M18.0335 13.8809L15.824 13.2465C15.5335 13.1631 15.2207 13.2455 15.009 13.4612L14.4687 14.0117C14.2408 14.2438 13.8951 14.3184 13.5936 14.1964C12.5483 13.7734 10.3496 11.8185 9.78813 10.8406C9.62614 10.5586 9.65293 10.2059 9.85183 9.94856L10.3236 9.33826C10.5084 9.09915 10.5474 8.77803 10.4252 8.50162L9.49556 6.39912C9.27289 5.89554 8.62937 5.74895 8.20896 6.10451C7.59229 6.62608 6.8606 7.41866 6.77165 8.29672C6.61483 9.84481 7.27875 11.7963 9.7894 14.1396C12.6899 16.8467 15.0126 17.2044 16.5248 16.838C17.3826 16.6303 18.0681 15.7974 18.5007 15.1154C18.7957 14.6504 18.5628 14.0329 18.0335 13.8809Z" fill="#7FED6F"/>
</g>
<defs>
<filter id="filter0_d_1_251" x="-2.91016" y="0" width="30.8145" height="31" filterUnits="userSpaceOnUse" color-interpolation-filters="sRGB">
<feFlood flood-opacity="0" result="BackgroundImageFix"/>
<feColorMatrix in="SourceAlpha" type="matrix" values="0 0 0 0 0 0 0 0 0 0 0 0 0 0 0 0 0 0 127 0" result="hardAlpha"/>
<feOffset dy="4"/>
<feGaussianBlur stdDeviation="2"/>
<feComposite in2="hardAlpha" operator="out"/>
<feColorMatrix type="matrix" values="0 0 0 0 0 0 0 0 0 0 0 0 0 0 0 0 0 0 0.25 0"/>
<feBlend mode="normal" in2="BackgroundImageFix" result="effect1_dropShadow_1_251"/>
<feBlend mode="normal" in="SourceGraphic" in2="effect1_dropShadow_1_251" result="shape"/>
</filter>
</defs>
</svg>
