<svg width="27" height="27" viewBox="0 0 27 27" fill="none" xmlns="http://www.w3.org/2000/svg">
<path fill-rule="evenodd" clip-rule="evenodd" d="M15.7197 15.7165C13.9132 17.5827 13.7816 19.9066 13.626 25C18.3725 25 21.6502 24.9821 23.343 23.3401C24.985 21.6473 25 18.2138 25 13.6232C19.9096 13.7876 17.5827 13.9103 15.7194 15.7168M2.0003 13.6232C2.0003 18.2141 2.01822 21.6472 3.66026 23.3401C5.35306 24.982 8.63108 25 13.3773 25C13.2128 19.9066 13.0901 17.5827 11.2836 15.7165C9.41734 13.91 7.09341 13.7784 2 13.6228M13.377 2.00023C8.63943 2.00023 5.35283 2.01518 3.65995 3.66017C2.01799 5.35295 2 8.78346 2 13.3771C7.09341 13.2126 9.41734 13.09 11.2836 11.2805C13.0901 9.41719 13.2217 7.09328 13.3773 2M15.7191 11.2805C13.9126 9.41719 13.7811 7.09328 13.6255 2C18.372 2 21.6496 2.01495 23.3425 3.65994C24.9845 5.35272 24.9995 8.78323 24.9995 13.3768C19.909 13.2124 17.5821 13.0897 15.7189 11.2803" fill="#333333"/>
<path fill-rule="evenodd" clip-rule="evenodd" d="M25 13.6236V13.3783C19.9095 13.2138 17.5826 13.0912 15.7193 11.2817C13.9128 9.41834 13.7812 7.09437 13.6257 2.00098H13.3774C13.2129 7.09445 13.0903 9.41841 11.2838 11.2817C9.41744 13.0912 7.09347 13.2228 2 13.3783V13.6236C7.09347 13.7881 9.41744 13.9107 11.2838 15.7172C13.0903 17.5835 13.2218 19.9075 13.3774 25.001H13.6257C13.7902 19.9075 13.9128 17.5835 15.7193 15.7172C17.5826 13.9107 19.9096 13.7791 25 13.6236Z" fill="url(#paint0_linear_1_254)"/>
<defs>
<linearGradient id="paint0_linear_1_254" x1="1" y1="0.5" x2="27.5" y2="27.5" gradientUnits="userSpaceOnUse">
<stop stop-color="white"/>
<stop offset="0.991317" stop-color="white" stop-opacity="0.83"/>
</linearGradient>
</defs>
</svg>
